<?xml version="1.0" standalone="no"?><!DOCTYPE svg PUBLIC "-//W3C//DTD SVG 1.1//EN" "http://www.w3.org/Graphics/SVG/1.1/DTD/svg11.dtd"><svg t="1587637294356" class="icon" viewBox="0 0 1024 1024" version="1.1" xmlns="http://www.w3.org/2000/svg" p-id="5104" xmlns:xlink="http://www.w3.org/1999/xlink" width="16" height="16"><defs><style type="text/css"></style></defs><path d="M243.4 70.8H781c21.3 0 38.6 17.4 38.6 38.6v806.4c0 21.3-17.4 38.6-38.6 38.6H243.4c-21.3 0-38.6-17.4-38.6-38.6V109.5c-0.1-21.3 17.3-38.7 38.6-38.7z" fill="#FF575A" p-id="5105"></path><path d="M780.9 955.2H243.4c-21.7 0-39.4-17.7-39.4-39.4V109.5c0-21.7 17.7-39.4 39.4-39.4H781c21.7 0 39.4 17.7 39.4 39.4v806.4c-0.1 21.7-17.8 39.3-39.5 39.3zM243.4 71.6c-20.9 0-37.9 17-37.9 37.9v806.4c0 20.9 17 37.9 37.9 37.9H781c20.9 0 37.9-17 37.9-37.9V109.5c0-20.9-17-37.9-37.9-37.9H243.4z" fill="#8F2C2E" p-id="5106"></path><path d="M242.9 67h537.6c21.3 0 38.6 17.4 38.6 38.6V912c0 21.3-17.4 38.6-38.6 38.6H242.9c-21.3 0-38.6-17.4-38.6-38.6V105.6c-0.1-21.2 17.3-38.6 38.6-38.6z" fill="#FF3D40" p-id="5107"></path><path d="M780.4 950.9H242.9c-21.5 0-38.9-17.5-38.9-38.9V105.6c0-21.5 17.5-38.9 38.9-38.9h537.6c21.5 0 38.9 17.5 38.9 38.9V912c-0.1 21.5-17.5 38.9-39 38.9zM242.9 67.3c-21.2 0-38.4 17.2-38.4 38.4V912c0 21.2 17.2 38.4 38.4 38.4h537.6c21.2 0 38.4-17.2 38.4-38.4V105.6c0-21.2-17.2-38.4-38.4-38.4H242.9z" fill="" p-id="5108"></path><path d="M451.2 309c-1.6 0-3.1-0.1-4.7-0.4-8.6-1.6-16.7-7.5-23-16.4-6.5-9.4-11.3-23-13.1-37.4-1.9-15.3-0.5-30 3.9-39.5 4.2-9.1 11.7-14.5 21.1-15.2 8.3-0.6 17.1 2.7 24.6 9.3 8.1 7.1 14 17.2 17.2 29.1 3.1 11.7 3.8 27.3 1.9 39.7-1.7 11.1-5.5 19-11.5 24.3-4.7 4.3-10.4 6.5-16.4 6.5z m-15.7-108.4c-9.2 0.7-16.5 6-20.6 14.9-4.3 9.4-5.8 24-3.9 39.2 1.8 14.2 6.5 27.8 13 37.1 6.1 8.8 14.1 14.6 22.6 16.2 7.5 1.4 14.9-0.7 20.7-5.8 5.9-5.2 9.6-13.1 11.3-24 1.9-12.4 1.1-27.9-1.9-39.5-3.1-11.8-9-21.8-17-28.8-7.4-6.6-16-9.9-24.2-9.3zM559.7 299.6c-1.6 0-3.2-0.2-4.8-0.5-8.9-1.7-17.3-7.7-23.7-16.9-6.7-9.7-11.7-23.8-13.5-38.6-2-15.8-0.5-31 4-40.8 4.4-9.4 12.1-15 21.8-15.7v0.3-0.3c8.6-0.6 17.6 2.8 25.5 9.7 8.3 7.3 14.5 17.7 17.7 30.1 3.2 12.1 4 28.2 2 41.1-1.8 11.4-5.6 19.6-11.8 25.1-5.1 4.2-11 6.5-17.2 6.5z m-14.3-112c-0.7 0-1.3 0-2 0.1-9.5 0.7-17.1 6.2-21.3 15.4-4.5 9.7-6 24.8-4 40.5 1.8 14.7 6.7 28.7 13.4 38.4 6.3 9.1 14.6 15.1 23.3 16.7 7.7 1.5 15.4-0.7 21.4-6 6.1-5.4 9.9-13.5 11.7-24.8 2-12.8 1.2-28.8-2-40.8-3.2-12.2-9.3-22.5-17.6-29.8-6.9-6.4-15-9.7-22.9-9.7z" fill="" p-id="5109"></path><path d="M334.9 688.1c3-2.6 5.7-2.2 8.4 1.1 7.4 7.4 16.1 11.3 26.1 11.7 17.8-0.4 26.9-7.4 27.3-21.1 0-11.5-9.8-18.9-29.5-22.3-21.5-4.1-32.2-13.5-32.2-28.4 1.1-19.3 13.2-29.3 36.1-30 13.7-0.4 24.1 3.3 31.2 11.1 2.2 2.2 3.2 4.3 2.8 6.1 0 1.9-0.9 3.3-2.8 4.4-1.9 1.1-4.5 0.2-7.8-2.8-5.9-5.6-13.7-8.3-23.4-8.3-15.2 0.7-23.5 7-25 18.9-0.7 9.3 9.6 15.9 31.1 20 20 4.8 30.4 15.2 31.2 31.2-0.4 20.8-13.4 31.3-38.9 31.7-15.2-0.4-26.9-5.7-35-16.1-1.6-2.5-1.4-4.9 0.4-7.2z m116.9-8.9l-10.6 26.7c-1.1 4.1-3.3 5.9-6.7 5.6-4.4-0.7-5.7-3.9-3.9-9.5l38.4-95.6c2.2-5.2 5.2-7.6 8.9-7.2 3.3-0.4 6.1 2 8.4 7.2l37.3 96.2c1.5 5.6 0 8.5-4.4 8.9-2.6 0.4-4.6-1.3-6.1-5l-10.6-27.3h-50.7z m46.7-10.5l-20.6-53.4-22.2 53.4h42.8z m62.4-62.8v92.3h46.7c4.4 0 6.7 1.7 6.7 5 0.4 4.1-1.9 5.9-6.7 5.6H557c-4.5 0-6.9-2.4-7.2-7.2V606c0-4.5 1.9-6.7 5.6-6.7 3.7-0.1 5.5 2.1 5.5 6.6z m90.2 52.8v39.5H700c4.5 0 6.7 1.9 6.7 5.6 0 3.3-2.2 5-6.7 5h-53.4c-4.8 0.4-7.2-1.7-7.2-6.1v-93.4c-0.4-5.2 2.4-7.6 8.3-7.2h51.7c4.8 0 7.2 1.9 7.2 5.6 0 3.3-2.4 5-7.2 5H651v35.6h44.5c4.8 0 7 1.9 6.7 5.6 0 3.3-2.2 5-6.7 5h-44.4z" fill="#FFFA69" p-id="5110"></path><path d="M203.2 229.7c62.2 88.6 176.7 148.1 307.6 148.1 130.6 0 244.9-59.2 307.2-147.5v-123c0-21.3-17.4-38.6-38.6-38.6H241.9c-21.3 0-38.6 17.4-38.6 38.6v122.4z" fill="#FF3D40" p-id="5111"></path><path d="M510.8 378.8c-63.3 0-125.6-14.1-180-40.9-52.8-26-97.3-63.2-128.5-107.6l-0.2-0.3V107.3c0-21.9 17.8-39.7 39.7-39.7h537.6c21.9 0 39.7 17.8 39.7 39.7v123.3l-0.2 0.3c-31.2 44.3-75.6 81.4-128.4 107.2-54.3 26.6-116.5 40.7-179.7 40.7zM204.3 229.4c64 90.9 181.4 147.3 306.5 147.3 124.8 0 242.1-56.3 306.2-146.8V107.3c0-20.7-16.9-37.6-37.6-37.6H241.9c-20.7 0-37.6 16.9-37.6 37.6v122.1z" fill="#8F2C2E" p-id="5112"></path><path d="M323.4 953.8v-41.2h10c-1.1-43.6-36.9-78.6-80.8-78.6-17 0-32.8 5.3-45.9 14.3v66.9c0 21.3 17.4 38.6 38.6 38.6h78.1z" fill="#FFFA69" p-id="5113"></path><path d="M324.1 954.6h-78.7c-21.7 0-39.4-17.7-39.4-39.4v-67.3l0.3-0.2c13.6-9.4 29.6-14.4 46.3-14.4 21.4 0 41.6 8.2 56.9 23.2 15.3 14.9 24 34.9 24.6 56.2v0.7h-10v41.2zM207.5 848.7v66.5c0 20.9 17 37.9 37.9 37.9h77.3V912h10c-1.5-43.4-36.5-77.2-80-77.2-16.2-0.1-31.9 4.8-45.2 13.9z" fill="#FFFA69" p-id="5114"></path><path d="M697.3 910.6H331.9v2.3c0 15.2-3.6 29.5-10 41.9H703V945c-3.7-9.9-5.7-20.8-5.7-32.1-0.1-0.7-0.1-1.5 0-2.3z" fill="#FFFA69" p-id="5115"></path><path d="M703.7 955.7h-383l0.6-1.1c6.5-12.6 9.9-27 9.9-41.6V909.9H698V913c0 11 1.9 21.7 5.7 31.9l0.1 0.1v10.7z m-380.6-1.6h379.2v-8.9c-3.8-10.3-5.7-21.1-5.7-32.3v-1.6h-364v1.6c0 14.4-3.3 28.6-9.5 41.2z" fill="#FFFA69" p-id="5116"></path><path d="M777.2 834.3c-44.8 0-81.2 35.2-82.3 79.1h5.8v32.3c1.3 3.2 2.7 6.2 4.4 9.2h75.7c21.7 0 39.4-17.5 39.4-38.9v-69.8c-12.6-7.5-27.3-11.9-43-11.9z" fill="#FFFA69" p-id="5117"></path><path d="M780.7 955.7h-76.1l-0.2-0.4c-1.7-3-3.2-6.1-4.4-9.2l-0.1-0.1v-31.7h-5.8v-0.7c0.6-21.4 9.5-41.5 25-56.5 15.6-15 36.2-23.3 58-23.3 15.3 0 30.3 4.2 43.3 12l0.3 0.2v70c0.1 21.9-17.9 39.7-40 39.7z m-75.2-1.5h75.2c21.3 0 38.7-17.1 38.7-38.2v-69.4c-12.7-7.6-27.3-11.6-42.2-11.6-44.3 0-80 34.1-81.6 77.7h5.8v32.9c1.2 3 2.5 5.9 4.1 8.6z" fill="#FFFA69" p-id="5118"></path><path d="M703 945.8v-32.1h-5.7v2.2c-0.1 10.6 2 20.7 5.7 29.9z" fill="#FFFA69" p-id="5119"></path><path d="M703.7 949.5l-1.4-3.4c-3.8-9.6-5.8-19.8-5.8-30.2V913h7.1v36.5z m-5.7-35v1.5c0 8.9 1.4 17.6 4.3 26v-27.4H698z" fill="#FFFA69" p-id="5120"></path><path d="M322.1 951.3c8.6-10.5 13.4-22.6 13.4-35.5v-2h-13.4v37.5z" fill="#FFFA69" p-id="5121"></path><path d="M321.2 953.8v-40.7h15.3v2.7c0 12.6-4.7 25-13.6 35.9l-1.7 2.1z m1.9-39.3v34.1c7.6-10.1 11.5-21.4 11.5-32.8v-1.2h-11.5z" fill="#FFFA69" p-id="5122"></path><path d="M415 371a108.9 21.3 0 1 0 217.8 0 108.9 21.3 0 1 0-217.8 0Z" fill="#FF575A" p-id="5123"></path><path d="M523.9 392.5c-29.1 0-56.4-2.2-77-6.2-20.7-4-32.1-9.5-32.1-15.3s11.4-11.3 32.1-15.3c20.6-4 47.9-6.2 77-6.2s56.4 2.2 77 6.2c20.7 4 32.1 9.5 32.1 15.3s-11.4 11.3-32.1 15.3c-20.6 4-47.9 6.2-77 6.2z m0-42.5c-59.9 0-108.6 9.4-108.6 21s48.7 21 108.6 21c59.9 0 108.6-9.4 108.6-21-0.1-11.6-48.8-21-108.6-21z" fill="#FF575A" p-id="5124"></path><path d="M686.3 339.4c-7.7 3.6-15.5 7.1-23.5 10.2-1.8 4.7-4.3 8.3-7.4 11-2.2 2-4.7 3.6-7.4 4.6 11.8-3.9 23.3-8.4 34.4-13.2 55.3-24.3 102.5-59.9 137.1-103.3V110c0-8.5-2.8-16.4-7.5-22.8 3.8 6 5.9 13 5.9 20.5v123c-34.6 49.2-74.4 81.4-131.6 108.7zM336.1 340c-54-25.6-99.3-62.7-131.3-107.4v17.9c33.6 41.5 78.6 75.8 131.3 99.7 7.2 3.3 14.5 6.3 21.9 9.2-0.3-2-0.5-4-0.6-6-0.1-1.4-0.2-2.8-0.2-4.2-7.2-2.9-14.3-6-21.1-9.2z" fill="#CF0B11" p-id="5125"></path><path d="M244.6 344.7c3.9 0 7.2 3.2 7.2 7.1v356c0 3.9-3.2 7.2-7.2 7.2-3.9 0-7.1-3.2-7.1-7.2v-356c0-3.9 3.2-7.1 7.1-7.1z" fill="#FFFFFF" p-id="5126"></path><path d="M244.6 715.3c-4.1 0-7.4-3.3-7.4-7.4v-356c0-4.1 3.3-7.4 7.4-7.4 4.1 0 7.4 3.3 7.4 7.4v356c0.1 4.1-3.3 7.4-7.4 7.4z m0-370.3c-3.8 0-6.9 3.1-6.9 6.9v356c0 3.8 3.1 6.9 6.9 6.9 3.8 0 6.9-3.1 6.9-6.9v-356c0-3.8-3.1-6.9-6.9-6.9z" fill="#FFFFFF" p-id="5127"></path><path d="M245.4 742.3c5.9 0 10.7 4.8 10.7 10.7 0 5.9-4.8 10.7-10.7 10.7-5.9 0-10.7-4.8-10.7-10.7 0-5.9 4.8-10.7 10.7-10.7z" fill="#FFFFFF" p-id="5128"></path><path d="M245.4 764c-6.1 0-11-4.9-11-11s4.9-11 11-11 11 4.9 11 11-4.9 11-11 11z m0-21.5c-5.8 0-10.4 4.7-10.4 10.4s4.7 10.4 10.4 10.4 10.4-4.7 10.4-10.4-4.7-10.4-10.4-10.4z" fill="#FFFFFF" p-id="5129"></path><path d="M784 286.2V835.4c12.9 0.9 25 4.9 35.6 11.3V248.3c-10.7 13.4-22.6 26.1-35.6 37.9z" fill="#CF0B11" p-id="5130"></path><path d="M683.9 97.1c18.1-1.9 52.9-1.9 73.5-0.2s27 5 31.2 10c4.2 5 6.1 11.7 7 29.4 1 17.8 1 46.6-0.4 61.6-1.3 15-3.9 16.2-6.7 16.2-2.7 0-5.6-1.2-7-15.4-1.4-14.2-1.4-41.3-1.7-57.2-0.3-15.8-0.9-20.4-3.3-23.7-2.4-3.3-6.6-5.3-24.6-6.1-18.1-0.8-50-0.3-67.1-1-17.2-0.7-19.5-2.4-20-5.2-0.4-2.6 1-6.5 19.1-8.4z" fill="#FFFFFF" p-id="5131"></path><path d="M788.7 214.4c-2.9 0-5.9-1.2-7.3-15.6-1.1-11.1-1.4-30.2-1.6-45.6-0.1-4.3-0.1-8.2-0.2-11.7-0.3-15.9-0.9-20.3-3.2-23.5-2.4-3.4-6.9-5.2-24.4-6-9.4-0.4-22.7-0.5-35.6-0.5-12-0.1-23.3-0.1-31.5-0.4-16.6-0.6-19.7-2.3-20.3-5.5-0.2-1.3 0-2.3 0.7-3.2 2-2.7 8.1-4.5 18.6-5.6 17.7-1.9 52.1-2 73.6-0.2 20.6 1.7 27.1 5 31.4 10.1 4.5 5.3 6.2 12.5 7.1 29.6 0.9 17.2 1 46.1-0.4 61.6-1.3 15.3-4 16.5-6.9 16.5zM684 97.4c-10.2 1.1-16.3 2.9-18.2 5.4-0.6 0.8-0.8 1.7-0.6 2.8 0.4 2.4 2.1 4.3 19.8 5 8.2 0.3 19.5 0.4 31.5 0.4 12.9 0.1 26.2 0.1 35.6 0.5 17.7 0.8 22.3 2.7 24.8 6.2 2.4 3.3 3 7.8 3.3 23.8 0.1 3.4 0.1 7.4 0.2 11.7 0.2 15.3 0.4 34.4 1.6 45.5 1.4 13.9 4.1 15.1 6.7 15.1 2.6 0 5.1-1.2 6.4-15.9 1.4-15.5 1.3-44.4 0.4-61.6-0.9-16.9-2.6-24-7-29.3-4.2-5-10.6-8.3-31-9.9-21.5-1.7-55.8-1.5-73.5 0.3z" fill="#FFFFFF" p-id="5132"></path><path d="M632.6 99.1c3.8 0 6.9 3.1 6.9 6.9 0 3.8-3.1 6.9-6.9 6.9-3.8 0-6.9-3.1-6.9-6.9 0-3.8 3.1-6.9 6.9-6.9z" fill="#FFFFFF" p-id="5133"></path><path d="M632.6 113.2c-4 0-7.2-3.2-7.2-7.2s3.2-7.2 7.2-7.2 7.2 3.2 7.2 7.2-3.2 7.2-7.2 7.2z m0-13.9c-3.7 0-6.6 3-6.6 6.6s3 6.6 6.6 6.6 6.6-3 6.6-6.6-2.9-6.6-6.6-6.6z" fill="#FFFFFF" p-id="5134"></path><path d="M699.4 888.7c10.8-32.1 41.1-55 76.6-55 2.7 0 5.4 0.1 8.1 0.4v-10c-5.6-1.2-11.3-1.8-17-1.8-39.6 0-72.7 28.6-79.5 66.5h11.8z" fill="#CF0B11" p-id="5135"></path><path d="M699.4 888.7H328c2.3 7 3.6 14.5 3.9 22.2h363.3c0.4-7.7 1.8-15.1 4.2-22.2z" fill="#CF0B11" p-id="5136"></path><path d="M693.7 912H332.9v-2.1h361.9v1.8h-1.1z" fill="#8F2C2E" p-id="5137"></path><path d="M331.8 912.4c-0.7-43.2-36.3-78.3-79.2-78.3-17.6 0-34.9 6-48.8 16.9l-1.3-1.7c14.2-11.2 32-17.3 50.1-17.3 21.4 0 41.7 8.3 57 23.5s23.9 35.4 24.3 57l-2.1-0.1zM694.8 913.1h-2.1c0.4-21.6 9-41.8 24.3-57s35.5-23.5 57-23.5c17.3 0 33.8 5.4 47.8 15.6l-1.2 1.7c-13.6-10-29.7-15.2-46.5-15.2-43.1 0.1-78.6 35.2-79.3 78.4z" fill="#8F2C2E" p-id="5138"></path><path d="M516.2 325.9c-15 0.6-30.8 5.2-44.5 18.9s-25.3 36.6-31.2 56.7c-5.9 20.1-6.2 37.4-0.6 50.9 5.5 13.4 16.8 23 32 29.4 15.2 6.4 34.3 9.7 56.5 9.2 22.2-0.5 47.6-4.8 64.6-13.3 17-8.5 25.5-21.4 29.3-34.9 3.8-13.6 2.8-27.9-4.1-43-6.9-15.1-19.7-30.9-30.5-42.3-10.8-11.4-19.6-18.5-31-23.6-11.5-5.3-25.6-8.6-40.5-8z" fill="#FFFA69" p-id="5139"></path><path d="M524 492c-20.2 0-37.8-3.1-52.4-9.3-16.3-6.9-27.3-16.9-32.6-30-5.6-13.7-5.4-31.1 0.6-51.6 6.6-22.4 18.6-44.3 31.4-57.1 12.1-12.1 26.9-18.4 45.2-19.2 17.7-0.7 32 3.9 40.9 7.9 11.1 5 19.9 11.7 31.4 23.9 8.1 8.6 22.9 25.5 30.7 42.6 6.8 14.7 8.2 29.4 4.2 43.7-4.4 15.9-14.4 27.9-29.8 35.6-15.6 7.8-39.9 12.9-65 13.4-1.6 0.1-3.1 0.1-4.6 0.1z m-7.8-165c-17.7 0.7-32 6.8-43.8 18.5-12.6 12.6-24.4 34.1-30.9 56.2-5.9 20.1-6.1 36.9-0.7 50.2 5.1 12.5 15.7 22.2 31.5 28.8 15.5 6.5 34.4 9.6 56.1 9.1 24.9-0.6 48.8-5.5 64.1-13.2 14.8-7.5 24.5-19 28.7-34.3 3.8-13.8 2.4-28-4.1-42.2-7.7-16.8-22.3-33.6-30.3-42.1-11.3-12-19.9-18.5-30.7-23.4-8.6-3.8-22.6-8.3-39.9-7.6z" fill="#870002" p-id="5140"></path><path d="M383 303.1c-7.8 0.2-15.5 4.1-20.2 13.1-4.7 9-6.5 23.1-5.5 36.5 1 13.4 4.8 26.3 10.4 35.4 5.7 9.1 13.2 14.5 20.5 16.3 7.3 1.8 14.3-0.1 19.9-4.5 5.5-4.4 9.5-11.3 11.7-22 2.2-10.7 2.6-25.1 0.1-37.1-2.5-11.9-7.9-21.4-14.6-27.8-6.6-6.5-14.6-10.1-22.3-9.9z" fill="#FFFA69" p-id="5141"></path><path d="M393.7 406.1c-1.9 0-3.8-0.2-5.7-0.7-8.1-2-15.7-7.9-21.1-16.7-5.7-9.2-9.6-22.3-10.6-35.9-1.1-14.5 1-28.3 5.6-37.1 4.5-8.6 12-13.4 21.1-13.6 8-0.2 16.2 3.4 23.1 10.1 7.3 7.1 12.5 16.9 14.9 28.4 2.4 11.3 2.4 25.7-0.1 37.5-2.1 10.4-6.1 17.8-12.1 22.6-4.5 3.5-9.7 5.4-15.1 5.4zM383 304.2c-8.3 0.2-15.1 4.6-19.3 12.5-4.4 8.4-6.4 21.8-5.3 35.9 1 13.3 4.7 26 10.3 34.9 5.2 8.4 12.2 14 19.8 15.8 6.7 1.6 13.4 0.1 18.9-4.3 5.6-4.5 9.3-11.5 11.4-21.4 2.3-11.3 2.4-25.7 0.1-36.6-2.3-11-7.3-20.5-14.3-27.3-6.5-6.3-14.2-9.7-21.6-9.5z" fill="#870002" p-id="5142"></path><path d="M444.6 218.2c-7.3 0.5-14.3 4.6-18.4 13.2-4 8.7-5 22-3.4 34.6 1.6 12.6 5.7 24.5 11.5 32.8 5.7 8.3 13.1 13 20 14.3 6.9 1.3 13.5-0.8 18.5-5.2s8.4-11.1 10-21.2c1.6-10.2 1.2-23.8-1.7-34.9-2.9-11.1-8.5-19.7-15-25.5-6.5-5.7-14.1-8.7-21.5-8.1z" fill="#FFFA69" p-id="5143"></path><path d="M458.5 314.6c-1.4 0-2.8-0.1-4.3-0.4-7.8-1.5-15.1-6.7-20.7-14.8-5.8-8.4-10.1-20.5-11.7-33.3-1.7-13.6-0.4-26.7 3.5-35.2 3.8-8.3 10.7-13.2 19.2-13.9 7.5-0.6 15.5 2.4 22.3 8.4 7.2 6.4 12.5 15.4 15.4 26 2.8 10.6 3.4 24.1 1.7 35.3-1.5 9.9-4.9 17.1-10.4 21.9-4.3 4-9.5 6-15 6z m-13.8-95.4c-7.8 0.6-14 5.1-17.5 12.6-3.7 8.1-5 20.8-3.3 34 1.6 12.4 5.7 24.2 11.3 32.3 5.3 7.6 12.1 12.5 19.4 13.9 6.3 1.2 12.6-0.6 17.6-4.9 5.1-4.5 8.2-11.2 9.7-20.6 1.7-10.8 1-24.3-1.7-34.4-2.7-10.3-7.8-18.9-14.7-25-6.5-5.6-13.8-8.4-20.8-7.9z" fill="#870002" p-id="5144"></path><path d="M539.6 206.8c-7.6 0.6-14.8 4.7-19 13.7-4.1 9-5.2 22.7-3.5 35.7 1.6 13 5.9 25.3 11.9 33.9 5.9 8.6 13.5 13.5 20.7 14.8 7.2 1.4 13.9-0.8 19.1-5.4 5.2-4.5 8.7-11.5 10.3-21.9 1.6-10.5 1.3-24.5-1.7-36s-8.7-20.4-15.5-26.3c-6.9-6.1-14.7-9.1-22.3-8.5z" fill="#FFFA69" p-id="5145"></path><path d="M553.9 306.3c-1.5 0-2.9-0.1-4.4-0.4-8-1.5-15.6-6.9-21.4-15.3-6-8.7-10.4-21.2-12-34.3-1.8-14-0.4-27.6 3.6-36.3 4-8.6 11-13.6 19.8-14.3 7.8-0.6 16 2.5 23 8.7 7.5 6.6 12.9 15.8 15.9 26.9 2.9 10.9 3.6 24.9 1.8 36.5-1.6 10.2-5.1 17.6-10.7 22.6-4.5 3.8-9.9 5.9-15.6 5.9z m-14.2-98.5c-8 0.6-14.5 5.2-18.1 13.1-3.9 8.4-5.1 21.5-3.4 35.2 1.6 12.8 5.9 25 11.7 33.4 5.4 7.9 12.5 13 20 14.4 6.6 1.2 13-0.6 18.2-5.1 5.2-4.6 8.5-11.6 10-21.3 1.7-11.1 1-25.1-1.7-35.6-2.8-10.6-8.1-19.5-15.2-25.8-6.7-5.9-14.3-8.8-21.5-8.3z" fill="#870002" p-id="5146"></path><path d="M624.3 265.3c-7.8 0.7-15.2 5.1-19.3 14.3-4.1 9.3-5 23.4-3.1 36.8 1.9 13.4 6.4 25.9 12.7 34.6 6.2 8.7 14.1 13.6 21.5 14.9 7.4 1.3 14.3-1 19.5-5.8 5.2-4.7 8.8-11.9 10.3-22.7 1.5-10.8 1-25.2-2.3-37s-9.3-20.8-16.3-26.9c-7.2-5.9-15.3-8.9-23-8.2z" fill="#FFFA69" p-id="5147"></path><path d="M640 367.4c-1.4 0-2.8-0.1-4.2-0.4-8.3-1.4-16.1-6.9-22.2-15.4-6.3-8.8-11-21.6-12.8-35.1-2-14.4-0.8-28.3 3.2-37.4 3.9-8.8 11.1-14.2 20.2-14.9 8-0.7 16.4 2.4 23.7 8.6 7.8 6.6 13.5 16.1 16.6 27.4 3.1 11.2 4 25.5 2.3 37.4-1.5 10.5-5 18.2-10.7 23.3-4.6 4.3-10.2 6.5-16.1 6.5z m-15.6-101c-8.3 0.7-14.8 5.6-18.4 13.7-3.9 8.7-5 22.2-3.1 36.2 1.8 13.2 6.4 25.6 12.5 34.2 5.7 8 13.1 13.2 20.8 14.5 6.8 1.2 13.4-0.8 18.6-5.5 5.3-4.8 8.6-12 10-22 1.6-11.5 0.7-25.8-2.3-36.6-3-10.9-8.5-20-16-26.3-6.9-6-14.7-8.9-22.1-8.2z" fill="#870002" p-id="5148"></path><path d="M556.1 448.2h-22.8v17.7c0 4.4-1.7 6.6-5.1 6.6-3.4 0.3-5.1-1.9-5.1-6.6v-17.7h-22.8c-4.1 0-6.1-1.7-6.1-5.1 0-3 2-4.6 6.1-4.6h22.8V433h-22.8c-4.1 0-6.1-1.7-6.1-5.1 0-3 2-4.6 6.1-4.6h21.3l-31.4-44.6c-2.4-3.7-2.2-6.4 0.5-8.1 3-1.7 5.7-0.7 8.1 3l29.4 41.6 29.4-41.1c2.4-4.1 5.1-5.1 8.1-3.1 3.1 1.4 3.2 4.1 0.5 8.1l-31.4 44.1h20.8c4.7-0.3 6.9 1.4 6.6 5.1 0 3-2 4.6-6.1 4.6h-22.8v5.6h22.3c4.7-0.3 6.9 1.4 6.6 5.1 0 3.1-2 4.6-6.1 4.6z" fill="#FF575A" p-id="5149"></path><path d="M780.9 956.6H243.4c-22.5 0-40.8-18.3-40.8-40.8V109.5c0-22.5 18.3-40.8 40.8-40.8H781c22.5 0 40.8 18.3 40.8 40.8v806.4c-0.1 22.4-18.4 40.7-40.9 40.7zM243.4 73c-20.1 0-36.5 16.4-36.5 36.5v806.4c0 20.1 16.4 36.5 36.5 36.5H781c20.1 0 36.5-16.4 36.5-36.5V109.5c0-20.1-16.4-36.5-36.5-36.5H243.4z" fill="#870002" p-id="5150"></path></svg>