<?xml version="1.0" standalone="no"?><!DOCTYPE svg PUBLIC "-//W3C//DTD SVG 1.1//EN" "http://www.w3.org/Graphics/SVG/1.1/DTD/svg11.dtd"><svg t="1583048711010" class="icon" viewBox="0 0 1024 1024" version="1.1" xmlns="http://www.w3.org/2000/svg" p-id="4457" xmlns:xlink="http://www.w3.org/1999/xlink" width="32" height="32"><defs><style type="text/css"></style></defs><path d="M238.933333 541.098667a38.4 38.4 0 0 1 38.4-38.4h469.333334a38.4 38.4 0 0 1 0 76.8h-469.333334a38.4 38.4 0 0 1-38.4-38.4z m0 213.333333a38.4 38.4 0 0 1 38.4-38.4h469.333334a38.4 38.4 0 0 1 0 76.8h-469.333334a38.4 38.4 0 0 1-38.4-38.4z" p-id="4458" fill="#2c2c2c"></path><path d="M249.6 359.338667l239.018667-204.885334a35.925333 35.925333 0 0 1 46.762666 0l239.018667 204.885334a30.592 30.592 0 0 1-36.864 48.64l-205.610667-137.088a35.925333 35.925333 0 0 0-39.850666 0L286.464 407.978667a30.592 30.592 0 0 1-36.864-48.64z" p-id="4459" fill="#2c2c2c"></path></svg>